<?xml version="1.0" ?><svg style="enable-background:new 0 0 44 44;" version="1.1" viewBox="0 0 44 44" xml:space="preserve" xmlns="http://www.w3.org/2000/svg" xmlns:xlink="http://www.w3.org/1999/xlink"><g id="ghost"/><g id="bat"/><g id="monster"/><g id="jason"/><g id="grave"/><g id="skull"/><g id="cauldron"/><g id="cleaver"/><g id="candle"/><g id="cat"/><g id="owl"/><g id="pumkin"/><g id="eye"/><g id="vampire"/><g id="finger"/><g id="leaf"/><g id="coffin"/><g id="broom"/><g id="moon"/><g id="poison"/><g id="sweet"/><g id="zombie"/><g id="hat"/><g id="candy"><g><path d="M30,16c0-3.115-1.793-5.812-4.398-7.133c-0.104,0.084-0.214,0.159-0.31,0.254l-2.917,2.917C24.403,12.231,26,13.923,26,16    c0,3.129,1.81,5.837,4.435,7.151l3.189-3.189C31.597,19.769,30,18.077,30,16z"/><path d="M24,22c0-3.129-1.81-5.837-4.435-7.151l-3.189,3.189C18.403,18.231,20,19.923,20,22c0,3.129,1.81,5.837,4.435,7.151    l3.189-3.189C25.597,25.769,24,24.077,24,22z"/><path d="M18,28c0-3.129-1.81-5.837-4.435-7.151l-3.189,3.189C12.403,24.231,14,25.923,14,28c0,3.113,1.791,5.81,4.394,7.131    c0.105-0.083,0.217-0.156,0.313-0.252l2.917-2.917C19.597,31.769,18,30.077,18,28z"/><g><path d="M43.178,5.764l-4.941-4.941C37.714,0.3,36.99,0,36.252,0c-1.163,0-2.219,0.731-2.628,1.82L31.59,7.244     C30.571,6.45,29.298,6,28,6c-1.534,0-3.036,0.622-4.121,1.707L7.707,23.879C6.622,24.964,6,26.466,6,28     c0,1.298,0.45,2.571,1.244,3.59L1.82,33.624C0.731,34.033,0,35.089,0,36.252c0,0.738,0.3,1.462,0.822,1.984l4.941,4.941     C6.286,43.7,7.01,44,7.748,44c1.163,0,2.219-0.731,2.628-1.82l2.034-5.424C13.429,37.55,14.702,38,16,38     c1.534,0,3.036-0.622,4.121-1.707l16.172-16.172C37.378,19.036,38,17.534,38,16c0-1.298-0.45-2.571-1.244-3.59l5.424-2.034     C43.269,9.967,44,8.911,44,7.748C44,7.01,43.7,6.286,43.178,5.764z M8.503,41.477c-0.191,0.513-0.938,0.674-1.325,0.287     L6.18,40.766c0.596-0.221,1.144-0.59,1.59-1.129c0.352-0.425,0.293-1.056-0.133-1.408c-0.425-0.352-1.055-0.293-1.408,0.133     c-0.593,0.717-1.504,0.808-2.179,0.274l-1.815-1.815C2.086,36.672,2,36.464,2,36.252c0-0.334,0.21-0.638,0.523-0.755l6.225-2.335     l2.09,2.09L8.503,41.477z M34.879,18.707L18.707,34.879C17.994,35.592,17.008,36,16,36s-1.994-0.408-2.707-1.121l-4.172-4.172     C8.408,29.994,8,29.008,8,28s0.408-1.994,1.121-2.707L25.293,9.121C26.006,8.408,26.992,8,28,8s1.994,0.408,2.707,1.121     l4.172,4.172C35.592,14.006,36,14.992,36,16S35.592,17.994,34.879,18.707z M41.477,8.503l-6.225,2.335l-2.09-2.09l2.335-6.225     c0.19-0.513,0.938-0.676,1.325-0.287l1.45,1.45c0.416,0.44,0.416,1.187,0,1.627c-0.379,0.402-0.36,1.035,0.041,1.414     C38.507,6.909,38.754,7,39,7c0.266,0,0.53-0.105,0.728-0.313c0.263-0.28,0.459-0.602,0.601-0.944l1.435,1.435     C41.914,7.328,42,7.536,42,7.748C42,8.082,41.79,8.386,41.477,8.503z"/></g></g></g></svg>